<mxfile host="app.diagrams.net" agent="Mozilla/5.0 (Windows NT 10.0; Win64; x64) AppleWebKit/537.36 (KHTML, like Gecko) Chrome/127.0.0.0 Safari/537.36 Edg/127.0.0.0" version="24.7.5">
  <diagram name="Page-1" id="lpWqk6xiSpAZc-c8aCkn">
    <mxGraphModel dx="1386" dy="783" grid="1" gridSize="10" guides="1" tooltips="1" connect="1" arrows="1" fold="1" page="1" pageScale="1" pageWidth="850" pageHeight="1100" math="0" shadow="0">
      <root>
        <mxCell id="0" />
        <mxCell id="1" parent="0" />
        <mxCell id="wktcg0rCqTXYBs3hQOg9-1" value="" style="ellipse;html=1;shape=startState;fillColor=#000000;strokeColor=#ff0000;" parent="1" vertex="1">
          <mxGeometry x="350" y="30" width="30" height="30" as="geometry" />
        </mxCell>
        <mxCell id="wktcg0rCqTXYBs3hQOg9-2" value="" style="edgeStyle=orthogonalEdgeStyle;html=1;verticalAlign=bottom;endArrow=open;endSize=8;strokeColor=#ff0000;rounded=0;" parent="1" source="wktcg0rCqTXYBs3hQOg9-1" edge="1">
          <mxGeometry relative="1" as="geometry">
            <mxPoint x="365" y="120" as="targetPoint" />
          </mxGeometry>
        </mxCell>
        <mxCell id="wktcg0rCqTXYBs3hQOg9-6" value="" style="edgeStyle=orthogonalEdgeStyle;rounded=0;orthogonalLoop=1;jettySize=auto;html=1;" parent="1" source="wktcg0rCqTXYBs3hQOg9-4" target="wktcg0rCqTXYBs3hQOg9-5" edge="1">
          <mxGeometry relative="1" as="geometry" />
        </mxCell>
        <mxCell id="wktcg0rCqTXYBs3hQOg9-4" value="Login" style="rounded=1;whiteSpace=wrap;html=1;" parent="1" vertex="1">
          <mxGeometry x="305" y="120" width="120" height="60" as="geometry" />
        </mxCell>
        <mxCell id="wktcg0rCqTXYBs3hQOg9-8" value="" style="edgeStyle=orthogonalEdgeStyle;rounded=0;orthogonalLoop=1;jettySize=auto;html=1;" parent="1" target="wktcg0rCqTXYBs3hQOg9-7" edge="1">
          <mxGeometry relative="1" as="geometry">
            <mxPoint x="355" y="440" as="sourcePoint" />
          </mxGeometry>
        </mxCell>
        <mxCell id="wktcg0rCqTXYBs3hQOg9-9" value="" style="edgeStyle=orthogonalEdgeStyle;rounded=0;orthogonalLoop=1;jettySize=auto;html=1;" parent="1" target="wktcg0rCqTXYBs3hQOg9-7" edge="1">
          <mxGeometry relative="1" as="geometry">
            <mxPoint x="355" y="440" as="sourcePoint" />
          </mxGeometry>
        </mxCell>
        <mxCell id="wktcg0rCqTXYBs3hQOg9-10" value="" style="edgeStyle=orthogonalEdgeStyle;rounded=0;orthogonalLoop=1;jettySize=auto;html=1;" parent="1" target="wktcg0rCqTXYBs3hQOg9-7" edge="1">
          <mxGeometry relative="1" as="geometry">
            <mxPoint x="355" y="440" as="sourcePoint" />
          </mxGeometry>
        </mxCell>
        <mxCell id="wktcg0rCqTXYBs3hQOg9-12" style="edgeStyle=orthogonalEdgeStyle;rounded=0;orthogonalLoop=1;jettySize=auto;html=1;" parent="1" target="wktcg0rCqTXYBs3hQOg9-11" edge="1">
          <mxGeometry relative="1" as="geometry">
            <mxPoint x="355" y="440" as="sourcePoint" />
          </mxGeometry>
        </mxCell>
        <mxCell id="wktcg0rCqTXYBs3hQOg9-16" style="edgeStyle=orthogonalEdgeStyle;rounded=0;orthogonalLoop=1;jettySize=auto;html=1;" parent="1" source="wktcg0rCqTXYBs3hQOg9-5" edge="1">
          <mxGeometry relative="1" as="geometry">
            <mxPoint x="365" y="440" as="targetPoint" />
          </mxGeometry>
        </mxCell>
        <mxCell id="3" value="" style="edgeStyle=none;html=1;" parent="1" source="wktcg0rCqTXYBs3hQOg9-5" target="2" edge="1">
          <mxGeometry relative="1" as="geometry" />
        </mxCell>
        <mxCell id="wktcg0rCqTXYBs3hQOg9-5" value="Is&lt;div&gt;Admin&lt;/div&gt;" style="rhombus;whiteSpace=wrap;html=1;rounded=1;" parent="1" vertex="1">
          <mxGeometry x="325" y="250" width="80" height="80" as="geometry" />
        </mxCell>
        <mxCell id="wktcg0rCqTXYBs3hQOg9-7" value="Export Data" style="whiteSpace=wrap;html=1;rounded=1;" parent="1" vertex="1">
          <mxGeometry x="210" y="500" width="120" height="60" as="geometry" />
        </mxCell>
        <mxCell id="wktcg0rCqTXYBs3hQOg9-14" value="" style="edgeStyle=orthogonalEdgeStyle;rounded=0;orthogonalLoop=1;jettySize=auto;html=1;" parent="1" source="wktcg0rCqTXYBs3hQOg9-11" target="wktcg0rCqTXYBs3hQOg9-13" edge="1">
          <mxGeometry relative="1" as="geometry" />
        </mxCell>
        <mxCell id="wktcg0rCqTXYBs3hQOg9-11" value="Register User" style="whiteSpace=wrap;html=1;rounded=1;" parent="1" vertex="1">
          <mxGeometry x="380" y="500" width="120" height="60" as="geometry" />
        </mxCell>
        <mxCell id="aSZ6V8N8rMkT4FPXFaIu-25" style="edgeStyle=orthogonalEdgeStyle;rounded=0;orthogonalLoop=1;jettySize=auto;html=1;entryX=0.5;entryY=0;entryDx=0;entryDy=0;" edge="1" parent="1" source="wktcg0rCqTXYBs3hQOg9-13" target="aSZ6V8N8rMkT4FPXFaIu-24">
          <mxGeometry relative="1" as="geometry" />
        </mxCell>
        <mxCell id="wktcg0rCqTXYBs3hQOg9-13" value="Return UUID" style="whiteSpace=wrap;html=1;rounded=1;" parent="1" vertex="1">
          <mxGeometry x="380" y="640" width="120" height="60" as="geometry" />
        </mxCell>
        <mxCell id="wktcg0rCqTXYBs3hQOg9-17" value="YES" style="text;html=1;align=center;verticalAlign=middle;resizable=0;points=[];autosize=1;strokeColor=none;fillColor=none;" parent="1" vertex="1">
          <mxGeometry x="375" y="358" width="50" height="30" as="geometry" />
        </mxCell>
        <mxCell id="14" value="" style="edgeStyle=none;html=1;" parent="1" source="2" target="13" edge="1">
          <mxGeometry relative="1" as="geometry" />
        </mxCell>
        <mxCell id="19" value="" style="edgeStyle=none;html=1;" parent="1" source="2" target="18" edge="1">
          <mxGeometry relative="1" as="geometry" />
        </mxCell>
        <mxCell id="2" value="Registration&lt;br&gt;Complete" style="rhombus;whiteSpace=wrap;html=1;rounded=1;" parent="1" vertex="1">
          <mxGeometry x="870" y="240" width="100" height="90" as="geometry" />
        </mxCell>
        <mxCell id="4" value="NO" style="text;html=1;align=center;verticalAlign=middle;resizable=0;points=[];autosize=1;strokeColor=none;fillColor=none;" parent="1" vertex="1">
          <mxGeometry x="580" y="255" width="40" height="30" as="geometry" />
        </mxCell>
        <mxCell id="aSZ6V8N8rMkT4FPXFaIu-27" style="edgeStyle=orthogonalEdgeStyle;rounded=0;orthogonalLoop=1;jettySize=auto;html=1;entryX=0.5;entryY=0;entryDx=0;entryDy=0;" edge="1" parent="1" source="5" target="aSZ6V8N8rMkT4FPXFaIu-24">
          <mxGeometry relative="1" as="geometry">
            <Array as="points">
              <mxPoint x="920" y="670" />
              <mxPoint x="805" y="670" />
            </Array>
          </mxGeometry>
        </mxCell>
        <mxCell id="5" value="View Profile Data" style="whiteSpace=wrap;html=1;rounded=1;" parent="1" vertex="1">
          <mxGeometry x="860" y="550" width="120" height="60" as="geometry" />
        </mxCell>
        <mxCell id="24" style="edgeStyle=none;html=1;entryX=0;entryY=0.5;entryDx=0;entryDy=0;" parent="1" source="7" target="18" edge="1">
          <mxGeometry relative="1" as="geometry">
            <Array as="points">
              <mxPoint x="740" y="455" />
            </Array>
          </mxGeometry>
        </mxCell>
        <mxCell id="aSZ6V8N8rMkT4FPXFaIu-26" style="edgeStyle=orthogonalEdgeStyle;rounded=0;orthogonalLoop=1;jettySize=auto;html=1;" edge="1" parent="1" source="7">
          <mxGeometry relative="1" as="geometry">
            <mxPoint x="740" y="670" as="targetPoint" />
          </mxGeometry>
        </mxCell>
        <mxCell id="7" value="Update Profile Data" style="whiteSpace=wrap;html=1;rounded=1;" parent="1" vertex="1">
          <mxGeometry x="680" y="550" width="120" height="60" as="geometry" />
        </mxCell>
        <mxCell id="aSZ6V8N8rMkT4FPXFaIu-28" style="edgeStyle=orthogonalEdgeStyle;rounded=0;orthogonalLoop=1;jettySize=auto;html=1;" edge="1" parent="1" source="8">
          <mxGeometry relative="1" as="geometry">
            <mxPoint x="920" y="670" as="targetPoint" />
            <Array as="points">
              <mxPoint x="1100" y="670" />
            </Array>
          </mxGeometry>
        </mxCell>
        <mxCell id="8" value="Download iCal" style="whiteSpace=wrap;html=1;rounded=1;" parent="1" vertex="1">
          <mxGeometry x="1040" y="550" width="120" height="60" as="geometry" />
        </mxCell>
        <mxCell id="20" style="edgeStyle=none;html=1;entryX=1;entryY=0.5;entryDx=0;entryDy=0;" parent="1" source="13" target="18" edge="1">
          <mxGeometry relative="1" as="geometry">
            <Array as="points">
              <mxPoint x="1100" y="455" />
            </Array>
          </mxGeometry>
        </mxCell>
        <mxCell id="13" value="Complete&lt;br&gt;Registration" style="whiteSpace=wrap;html=1;rounded=1;" parent="1" vertex="1">
          <mxGeometry x="1040" y="255" width="120" height="60" as="geometry" />
        </mxCell>
        <mxCell id="15" value="NO" style="text;html=1;align=center;verticalAlign=middle;resizable=0;points=[];autosize=1;strokeColor=none;fillColor=none;" parent="1" vertex="1">
          <mxGeometry x="980" y="255" width="40" height="30" as="geometry" />
        </mxCell>
        <mxCell id="21" value="" style="edgeStyle=none;html=1;" parent="1" source="18" target="5" edge="1">
          <mxGeometry relative="1" as="geometry">
            <Array as="points">
              <mxPoint x="920" y="510" />
            </Array>
          </mxGeometry>
        </mxCell>
        <mxCell id="22" style="edgeStyle=none;html=1;entryX=0.317;entryY=-0.033;entryDx=0;entryDy=0;entryPerimeter=0;" parent="1" source="18" target="7" edge="1">
          <mxGeometry relative="1" as="geometry">
            <mxPoint x="720" y="540" as="targetPoint" />
            <Array as="points">
              <mxPoint x="920" y="520" />
              <mxPoint x="720" y="520" />
            </Array>
          </mxGeometry>
        </mxCell>
        <mxCell id="23" style="edgeStyle=none;html=1;entryX=0.65;entryY=0.033;entryDx=0;entryDy=0;entryPerimeter=0;" parent="1" source="18" target="8" edge="1">
          <mxGeometry relative="1" as="geometry">
            <Array as="points">
              <mxPoint x="920" y="520" />
              <mxPoint x="1118" y="520" />
            </Array>
          </mxGeometry>
        </mxCell>
        <mxCell id="18" value="View Years Left to Love" style="whiteSpace=wrap;html=1;rounded=1;" parent="1" vertex="1">
          <mxGeometry x="860" y="425" width="120" height="60" as="geometry" />
        </mxCell>
        <mxCell id="aSZ6V8N8rMkT4FPXFaIu-24" value="" style="ellipse;html=1;shape=endState;fillColor=#000000;strokeColor=#ff0000;" vertex="1" parent="1">
          <mxGeometry x="790" y="870" width="30" height="30" as="geometry" />
        </mxCell>
      </root>
    </mxGraphModel>
  </diagram>
</mxfile>
